# xmcd
#
# Track frame offsets:
#	150
#	11532
#	30520
#	45966
#	64213
#	74893
#	88863
#	100312
#	113122
#	123188
#	137669
#	161497
#	172460
#	187814
#	200731
#	212897
#	225333
#	236816
#	247269
#	258337
#	270952
#	283069
#	296936
#	308664
#	326553
#
# Disc length: 4582 seconds
# Revision: 0
# Processed by: cddbd v1.5.2PL0 Copyright (c) Steve Scherf et al.
# Submitted via: dBpowerAMP V12.0
#
DISCID=7a11e419
DTITLE=Jimmy Witherspoon - Ain't Nobody's Business [2]
DYEAR=1900
DGENRE=Blues
TTITLE0=Who Baby Who
TTITLE1=There's Good Rockin' Tonight
TTITLE2=No Rollin' Blues
TTITLE3=See See Rider (Wilbur De Paris)
TTITLE4=Ooo-Wee Baby
TTITLE5=Done Found Out
TTITLE6=Pink Champagne
TTITLE7=The Masquerade Is Over
TTITLE8=Drinkin' Beer
TTITLE9=Failing By Degrees
TTITLE10=Sweets' Blues
TTITLE11=I'm Just A Lady's Man
TTITLE12=Did You Ever?
TTITLE13=Don't Ever Move A Woman Into
TTITLE14=Careless Love (Wilbur De Paris)
TTITLE15=Take Me Back Baby
TTITLE16=Sweet Lovin' Baby
TTITLE17=Have Faith
TTITLE18=New Orleans Woman
TTITLE19=Jump Children
TTITLE20=Once There Lived A Fool
TTITLE21=When I Had My Money
TTITLE22=Fickle Woman
TTITLE23=Goin To Chicago Blues
TTITLE24=When The Sun Goes Down
EXTD=
EXTT0=
EXTT1=
EXTT2=
EXTT3=
EXTT4=
EXTT5=
EXTT6=
EXTT7=
EXTT8=
EXTT9=
EXTT10=
EXTT11=
EXTT12=
EXTT13=
EXTT14=
EXTT15=
EXTT16=
EXTT17=
EXTT18=
EXTT19=
EXTT20=
EXTT21=
EXTT22=
EXTT23=
EXTT24=
PLAYORDER=
